<svg width="128" height="128" viewBox="0 0 128 128" fill="none" xmlns="http://www.w3.org/2000/svg">
<rect width="128" height="128" rx="20" fill="#121212"/>
<path d="M85.8 74C86.2 70.7 86.5 67.4 86.5 64C86.5 60.6 86.2 57.3 85.8 54H102.7C103.5 57.2 104 60.55 104 64C104 67.45 103.5 70.8 102.7 74M76.95 101.8C79.95 96.25 82.25 90.25 83.85 84H98.6C93.7558 92.3414 86.0706 98.66 76.95 101.8ZM75.7 74H52.3C51.8 70.7 51.5 67.4 51.5 64C51.5 60.6 51.8 57.25 52.3 54H75.7C76.15 57.25 76.5 60.6 76.5 64C76.5 67.4 76.15 70.7 75.7 74ZM64 103.8C59.85 97.8 56.5 91.15 54.45 84H73.55C71.5 91.15 68.15 97.8 64 103.8ZM44 44H29.4C34.1932 35.6352 41.8733 29.3062 51 26.2C48 31.75 45.75 37.75 44 44ZM29.4 84H44C45.75 90.25 48 96.25 51 101.8C41.8913 98.6615 34.2214 92.341 29.4 84ZM25.3 74C24.5 70.8 24 67.45 24 64C24 60.55 24.5 57.2 25.3 54H42.2C41.8 57.3 41.5 60.6 41.5 64C41.5 67.4 41.8 70.7 42.2 74M64 24.15C68.15 30.15 71.5 36.85 73.55 44H54.45C56.5 36.85 59.85 30.15 64 24.15ZM98.6 44H83.85C82.2827 37.8081 79.9656 31.8305 76.95 26.2C86.15 29.35 93.8 35.7 98.6 44ZM64 14C36.35 14 14 36.5 14 64C14 77.2608 19.2678 89.9785 28.6447 99.3553C33.2876 103.998 38.7995 107.681 44.8658 110.194C50.9321 112.707 57.4339 114 64 114C77.2608 114 89.9785 108.732 99.3553 99.3553C108.732 89.9785 114 77.2608 114 64C114 57.4339 112.707 50.9321 110.194 44.8658C107.681 38.7995 103.998 33.2876 99.3553 28.6447C94.7124 24.0017 89.2005 20.3188 83.1342 17.806C77.0679 15.2933 70.5661 14 64 14Z" fill="#245AAB"/>
</svg>
